# xmcd
#
# Track frame offsets: 
#        150
#        15350
#        29005
#        43447
#        59132
#        72190
#        85870
#        101040
#        114845
#        128005
#        143507
#        157405
#        171685
#        185477
#        199512
#        213585
#        226710
#        241037
#        256605
#        271780
#        286412
#        300997
#        316405
#
# Disc length: 4386 seconds
#
# Revision: 4
# Processed by: cddbd v1.5.2PL0 Copyright (c) Steve Scherf et al.
# Submitted via: ExactAudioCopyFreeDBPlugin 1.0
#
DISCID=44112017
DTITLE=Bessie Smith - The Complete Recordings, Volume 1 [Frog]
DYEAR=2001
DGENRE=Blues
TTITLE0=Down Hearted Blues
TTITLE1=Gulf Coast Blues
TTITLE2=Agrevatin' Papa
TTITLE3=Beale Street Mama
TTITLE4=Baby, Won't You, Please Come Home Blues
TTITLE5=Oh! Daddy Blues
TTITLE6='Tain't Nobody's Business If I Do
TTITLE7=Keeps On a Rainin'
TTITLE8=Mama's Got the Blues
TTITLE9=Outside of That
TTITLE10=Bleeding Hearted Blues
TTITLE11=Lady Luck Blues (take 2)
TTITLE12=Lady Luck Blues (take 3)
TTITLE13=Yodling Blues (take 2)
TTITLE14=Yodling Blues (take 3)
TTITLE15=Midnight Blues (take 1)
TTITLE16=Midnight Blues (take 3)
TTITLE17=If You Don't, I Know Who Will
TTITLE18=Nobody in Town Can Bake a Sweet Jelly Roll Like Mine
TTITLE19=Jail-House Blues
TTITLE20=St. Louis Gal (take 1)
TTITLE21=St. Louis Gal (take 3)
TTITLE22=Sam Jones Blues
EXTD=
EXTT0=
EXTT1=
EXTT2=
EXTT3=
EXTT4=
EXTT5=
EXTT6=
EXTT7=
EXTT8=
EXTT9=
EXTT10=
EXTT11=
EXTT12=
EXTT13=
EXTT14=
EXTT15=
EXTT16=
EXTT17=
EXTT18=
EXTT19=
EXTT20=
EXTT21=
EXTT22=
PLAYORDER=
